<?xml version="1.0" encoding="utf-8"?>
<!-- Generator: Adobe Illustrator 22.0.0, SVG Export Plug-In . SVG Version: 6.00 Build 0)  -->
<svg version="1.1" id="Layer_1" xmlns="http://www.w3.org/2000/svg" xmlns:xlink="http://www.w3.org/1999/xlink" x="0px" y="0px"
	 viewBox="0 0 250 250" style="enable-background:new 0 0 250 250;" xml:space="preserve">
<style type="text/css">
	.st0{fill:#1831D1;}
</style>
<path class="st0" d="M175.9,78.4c-19.8,0-38.5,9.1-50.9,24.3c-12-14.8-30.4-24.3-50.9-24.3c-36.1,0-65.5,29.4-65.5,65.5
	s29.4,65.5,65.5,65.5c20.5,0,38.8-9.5,50.9-24.3c12.3,15.2,31.1,24.3,50.9,24.3c36.1,0,65.5-29.4,65.5-65.5
	C241.4,107.8,212,78.4,175.9,78.4z M74.1,196.5c-29,0-52.5-23.6-52.5-52.5s23.6-52.5,52.5-52.5s52.5,23.6,52.5,52.5
	S103.1,196.5,74.1,196.5z M175.9,196.5c-17.3,0-33.6-8.7-43.3-22.8c4.6-8.9,7.1-19,7.1-29.7s-2.6-20.8-7.1-29.7
	c9.7-14.2,26-22.8,43.3-22.8c29,0,52.5,23.6,52.5,52.5S204.8,196.5,175.9,196.5z"/>
<ellipse transform="matrix(0.9732 -0.2298 0.2298 0.9732 -11.6274 7.4871)" class="st0" cx="26.3" cy="53.7" rx="13.1" ry="13.1"/>
<path class="st0" d="M178.3,111.9c-6,0-10.9,4.9-10.9,10.9V168c0,6,4.9,10.9,10.9,10.9c6,0,10.9-4.9,10.9-10.9v-29.9l-11.4-5
	l11.4-9.9v-0.4C189.3,116.8,184.3,111.9,178.3,111.9z"/>
</svg>
